<mxfile modified="2022-09-04T18:47:38.099Z" host="app.diagrams.net" agent="5.0 (Macintosh; Intel Mac OS X 10_15_7) AppleWebKit/537.36 (KHTML, like Gecko) Chrome/93.0.4577.82 Safari/537.36" etag="qGx3nZH5niUl1dOVGv4_" version="20.0.1" type="github">
  <diagram id="Ht1M8jgEwFfnCIfOTk4-" name="Page-1">
    <mxGraphModel dx="1298" dy="715" grid="1" gridSize="10" guides="1" tooltips="1" connect="1" arrows="1" fold="1" page="1" pageScale="1" pageWidth="1169" pageHeight="827" math="0" shadow="0">
      <root>
        <mxCell id="0" />
        <mxCell id="1" parent="0" />
        <mxCell id="-QjtrjUzRDEMRZ5MF8oH-47" value="Amazon Redshift with data ingestions pipeline" style="text;html=1;resizable=0;points=[];autosize=1;align=left;verticalAlign=top;spacingTop=-4;fontSize=30;fontStyle=1" parent="1" vertex="1">
          <mxGeometry x="56.5" y="64.5" width="680" height="40" as="geometry" />
        </mxCell>
        <mxCell id="-QjtrjUzRDEMRZ5MF8oH-48" value="Architecture Diagram" style="text;html=1;resizable=0;points=[];autosize=1;align=left;verticalAlign=top;spacingTop=-4;fontSize=16;" parent="1" vertex="1">
          <mxGeometry x="56.5" y="114.5" width="170" height="20" as="geometry" />
        </mxCell>
        <mxCell id="SCVMTBWpLvtzJIhz15lM-1" value="" style="line;strokeWidth=2;html=1;fontSize=14;" parent="1" vertex="1">
          <mxGeometry x="52.5" y="139.5" width="1060" height="10" as="geometry" />
        </mxCell>
        <mxCell id="7OVz4w7n9kzEPWy-4BBC-3" value="" style="rounded=0;whiteSpace=wrap;html=1;fillColor=#EAEDED;fontSize=22;fontColor=#FFFFFF;strokeColor=none;labelBackgroundColor=none;" parent="1" vertex="1">
          <mxGeometry x="1151" y="51" width="539" height="1220" as="geometry" />
        </mxCell>
        <mxCell id="7OVz4w7n9kzEPWy-4BBC-4" value="1" style="rounded=1;whiteSpace=wrap;html=1;fillColor=#007CBD;strokeColor=none;fontColor=#FFFFFF;fontStyle=1;fontSize=22;labelBackgroundColor=none;" parent="1" vertex="1">
          <mxGeometry x="1169" y="63" width="40" height="38" as="geometry" />
        </mxCell>
        <mxCell id="7OVz4w7n9kzEPWy-4BBC-5" value="2" style="rounded=1;whiteSpace=wrap;html=1;fillColor=#007CBD;strokeColor=none;fontColor=#FFFFFF;fontStyle=1;fontSize=22;labelBackgroundColor=none;" parent="1" vertex="1">
          <mxGeometry x="1167.5" y="185" width="40" height="38" as="geometry" />
        </mxCell>
        <mxCell id="7OVz4w7n9kzEPWy-4BBC-6" value="3" style="rounded=1;whiteSpace=wrap;html=1;fillColor=#007CBD;strokeColor=none;fontColor=#FFFFFF;fontStyle=1;fontSize=22;labelBackgroundColor=none;" parent="1" vertex="1">
          <mxGeometry x="1167.5" y="305" width="40" height="38" as="geometry" />
        </mxCell>
        <mxCell id="7OVz4w7n9kzEPWy-4BBC-7" value="4" style="rounded=1;whiteSpace=wrap;html=1;fillColor=#007CBD;strokeColor=none;fontColor=#FFFFFF;fontStyle=1;fontSize=22;labelBackgroundColor=none;" parent="1" vertex="1">
          <mxGeometry x="1167.5" y="419" width="40" height="38" as="geometry" />
        </mxCell>
        <mxCell id="7OVz4w7n9kzEPWy-4BBC-8" value="5" style="rounded=1;whiteSpace=wrap;html=1;fillColor=#007CBD;strokeColor=none;fontColor=#FFFFFF;fontStyle=1;fontSize=22;labelBackgroundColor=none;" parent="1" vertex="1">
          <mxGeometry x="1169" y="536" width="40" height="38" as="geometry" />
        </mxCell>
        <mxCell id="7OVz4w7n9kzEPWy-4BBC-9" value="6" style="rounded=1;whiteSpace=wrap;html=1;fillColor=#007CBD;strokeColor=none;fontColor=#FFFFFF;fontStyle=1;fontSize=22;labelBackgroundColor=none;" parent="1" vertex="1">
          <mxGeometry x="1170" y="651" width="40" height="38" as="geometry" />
        </mxCell>
        <mxCell id="7OVz4w7n9kzEPWy-4BBC-10" value="7" style="rounded=1;whiteSpace=wrap;html=1;fillColor=#007CBD;strokeColor=none;fontColor=#FFFFFF;fontStyle=1;fontSize=22;labelBackgroundColor=none;" parent="1" vertex="1">
          <mxGeometry x="1169.5" y="767" width="40" height="38" as="geometry" />
        </mxCell>
        <mxCell id="7OVz4w7n9kzEPWy-4BBC-11" value="8" style="rounded=1;whiteSpace=wrap;html=1;fillColor=#007CBD;strokeColor=none;fontColor=#FFFFFF;fontStyle=1;fontSize=22;labelBackgroundColor=none;" parent="1" vertex="1">
          <mxGeometry x="1170" y="885" width="40" height="38" as="geometry" />
        </mxCell>
        <mxCell id="7OVz4w7n9kzEPWy-4BBC-12" value="9" style="rounded=1;whiteSpace=wrap;html=1;fillColor=#007CBD;strokeColor=none;fontColor=#FFFFFF;fontStyle=1;fontSize=22;labelBackgroundColor=none;" parent="1" vertex="1">
          <mxGeometry x="1168" y="1005" width="40" height="38" as="geometry" />
        </mxCell>
        <mxCell id="7OVz4w7n9kzEPWy-4BBC-13" value="&lt;span&gt;Lorem ipsum dolor sit amet, consectetur adipiscing elit, sed do eiusmod tempor incididunt ut labore et dolore magna aliqua. Ut enim ad minim veniam, quis nostrud exercitation ullamco laboris nisi ut aliquip ex ea commodo consequat. Duis aute irure dolor in reprehenderit in voluptate velit esse cillum dolore eu fugiat nulla pariatur. Excepteur sint occaecat cupidatat non proident, sunt in culpa qui officia deserunt mollit anim id est laborum.&lt;/span&gt;&lt;br&gt;" style="text;html=1;align=left;verticalAlign=top;spacingTop=-4;fontSize=14;labelBackgroundColor=none;whiteSpace=wrap;" parent="1" vertex="1">
          <mxGeometry x="1220.5" y="62.5" width="449" height="118" as="geometry" />
        </mxCell>
        <mxCell id="7OVz4w7n9kzEPWy-4BBC-14" value="&lt;span&gt;Lorem ipsum dolor sit amet, consectetur adipiscing elit, sed do eiusmod tempor incididunt ut labore et dolore magna aliqua. Ut enim ad minim veniam, quis nostrud exercitation ullamco laboris nisi ut aliquip ex ea commodo consequat. Duis aute irure dolor in reprehenderit in voluptate velit esse cillum dolore eu fugiat nulla pariatur. Excepteur sint occaecat cupidatat non proident, sunt in culpa qui officia deserunt mollit anim id est laborum.&lt;/span&gt;&lt;br&gt;" style="text;html=1;align=left;verticalAlign=top;spacingTop=-4;fontSize=14;labelBackgroundColor=none;whiteSpace=wrap;" parent="1" vertex="1">
          <mxGeometry x="1219.5" y="185.5" width="450" height="115" as="geometry" />
        </mxCell>
        <mxCell id="7OVz4w7n9kzEPWy-4BBC-15" value="&lt;span&gt;Lorem ipsum dolor sit amet, consectetur adipiscing elit, sed do eiusmod tempor incididunt ut labore et dolore magna aliqua. Ut enim ad minim veniam, quis nostrud exercitation ullamco laboris nisi ut aliquip ex ea commodo consequat. Duis aute irure dolor in reprehenderit in voluptate velit esse cillum dolore eu fugiat nulla pariatur. Excepteur sint occaecat cupidatat non proident, sunt in culpa qui officia deserunt mollit anim id est laborum.&lt;/span&gt;&lt;br&gt;" style="text;html=1;align=left;verticalAlign=top;spacingTop=-4;fontSize=14;labelBackgroundColor=none;whiteSpace=wrap;" parent="1" vertex="1">
          <mxGeometry x="1219.5" y="303.5" width="450" height="117" as="geometry" />
        </mxCell>
        <mxCell id="7OVz4w7n9kzEPWy-4BBC-16" value="&lt;span&gt;Lorem ipsum dolor sit amet, consectetur adipiscing elit, sed do eiusmod tempor incididunt ut labore et dolore magna aliqua. Ut enim ad minim veniam, quis nostrud exercitation ullamco laboris nisi ut aliquip ex ea commodo consequat. Duis aute irure dolor in reprehenderit in voluptate velit esse cillum dolore eu fugiat nulla pariatur. Excepteur sint occaecat cupidatat non proident, sunt in culpa qui officia deserunt mollit anim id est laborum.&lt;/span&gt;&lt;br&gt;" style="text;html=1;align=left;verticalAlign=top;spacingTop=-4;fontSize=14;labelBackgroundColor=none;whiteSpace=wrap;" parent="1" vertex="1">
          <mxGeometry x="1219.5" y="419.5" width="450" height="121" as="geometry" />
        </mxCell>
        <mxCell id="7OVz4w7n9kzEPWy-4BBC-17" value="&lt;span&gt;Lorem ipsum dolor sit amet, consectetur adipiscing elit, sed do eiusmod tempor incididunt ut labore et dolore magna aliqua. Ut enim ad minim veniam, quis nostrud exercitation ullamco laboris nisi ut aliquip ex ea commodo consequat. Duis aute irure dolor in reprehenderit in voluptate velit esse cillum dolore eu fugiat nulla pariatur. Excepteur sint occaecat cupidatat non proident, sunt in culpa qui officia deserunt mollit anim id est laborum.&lt;/span&gt;&lt;br&gt;" style="text;html=1;align=left;verticalAlign=top;spacingTop=-4;fontSize=14;labelBackgroundColor=none;whiteSpace=wrap;" parent="1" vertex="1">
          <mxGeometry x="1220.5" y="536.5" width="449" height="114" as="geometry" />
        </mxCell>
        <mxCell id="7OVz4w7n9kzEPWy-4BBC-18" value="&lt;span&gt;Lorem ipsum dolor sit amet, consectetur adipiscing elit, sed do eiusmod tempor incididunt ut labore et dolore magna aliqua. Ut enim ad minim veniam, quis nostrud exercitation ullamco laboris nisi ut aliquip ex ea commodo consequat. Duis aute irure dolor in reprehenderit in voluptate velit esse cillum dolore eu fugiat nulla pariatur. Excepteur sint occaecat cupidatat non proident, sunt in culpa qui officia deserunt mollit anim id est laborum.&lt;/span&gt;&lt;br&gt;" style="text;html=1;align=left;verticalAlign=top;spacingTop=-4;fontSize=14;labelBackgroundColor=none;whiteSpace=wrap;" parent="1" vertex="1">
          <mxGeometry x="1220.5" y="652.5" width="450" height="118" as="geometry" />
        </mxCell>
        <mxCell id="7OVz4w7n9kzEPWy-4BBC-19" value="&lt;span&gt;Lorem ipsum dolor sit amet, consectetur adipiscing elit, sed do eiusmod tempor incididunt ut labore et dolore magna aliqua. Ut enim ad minim veniam, quis nostrud exercitation ullamco laboris nisi ut aliquip ex ea commodo consequat. Duis aute irure dolor in reprehenderit in voluptate velit esse cillum dolore eu fugiat nulla pariatur. Excepteur sint occaecat cupidatat non proident, sunt in culpa qui officia deserunt mollit anim id est laborum.&lt;/span&gt;&lt;br&gt;" style="text;html=1;align=left;verticalAlign=top;spacingTop=-4;fontSize=14;labelBackgroundColor=none;whiteSpace=wrap;" parent="1" vertex="1">
          <mxGeometry x="1220.5" y="767.5" width="449" height="113" as="geometry" />
        </mxCell>
        <mxCell id="7OVz4w7n9kzEPWy-4BBC-20" value="&lt;span&gt;Lorem ipsum dolor sit amet, consectetur adipiscing elit, sed do eiusmod tempor incididunt ut labore et dolore magna aliqua. Ut enim ad minim veniam, quis nostrud exercitation ullamco laboris nisi ut aliquip ex ea commodo consequat. Duis aute irure dolor in reprehenderit in voluptate velit esse cillum dolore eu fugiat nulla pariatur. Excepteur sint occaecat cupidatat non proident, sunt in culpa qui officia deserunt mollit anim id est laborum.&lt;/span&gt;&lt;br&gt;" style="text;html=1;align=left;verticalAlign=top;spacingTop=-4;fontSize=14;labelBackgroundColor=none;whiteSpace=wrap;" parent="1" vertex="1">
          <mxGeometry x="1220.5" y="886.5" width="449" height="124" as="geometry" />
        </mxCell>
        <mxCell id="7OVz4w7n9kzEPWy-4BBC-21" value="&lt;span&gt;Lorem ipsum dolor sit amet, consectetur adipiscing elit, sed do eiusmod tempor incididunt ut labore et dolore magna aliqua. Ut enim ad minim veniam, quis nostrud exercitation ullamco laboris nisi ut aliquip ex ea commodo consequat. Duis aute irure dolor in reprehenderit in voluptate velit esse cillum dolore eu fugiat nulla pariatur. Excepteur sint occaecat cupidatat non proident, sunt in culpa qui officia deserunt mollit anim id est laborum.&lt;/span&gt;&lt;br&gt;" style="text;html=1;align=left;verticalAlign=top;spacingTop=-4;fontSize=14;labelBackgroundColor=none;whiteSpace=wrap;" parent="1" vertex="1">
          <mxGeometry x="1220.5" y="1005.5" width="449" height="115" as="geometry" />
        </mxCell>
        <mxCell id="7OVz4w7n9kzEPWy-4BBC-22" value="10" style="rounded=1;whiteSpace=wrap;html=1;fillColor=#007CBD;strokeColor=none;fontColor=#FFFFFF;fontStyle=1;fontSize=22;labelBackgroundColor=none;" parent="1" vertex="1">
          <mxGeometry x="1169" y="1130.5" width="40" height="38" as="geometry" />
        </mxCell>
        <mxCell id="7OVz4w7n9kzEPWy-4BBC-23" value="&lt;span&gt;Lorem ipsum dolor sit amet, consectetur adipiscing elit, sed do eiusmod tempor incididunt ut labore et dolore magna aliqua. Ut enim ad minim veniam, quis nostrud exercitation ullamco laboris nisi ut aliquip ex ea commodo consequat. Duis aute irure dolor in reprehenderit in voluptate velit esse cillum dolore eu fugiat nulla pariatur. Excepteur sint occaecat cupidatat non proident, sunt in culpa qui officia deserunt mollit anim id est laborum.&lt;/span&gt;&lt;br&gt;" style="text;html=1;align=left;verticalAlign=top;spacingTop=-4;fontSize=14;labelBackgroundColor=none;whiteSpace=wrap;" parent="1" vertex="1">
          <mxGeometry x="1221.5" y="1131" width="449" height="115" as="geometry" />
        </mxCell>
        <mxCell id="qXRKfucKjeWxSQUEj51c-1" value="AWS Cloud" style="points=[[0,0],[0.25,0],[0.5,0],[0.75,0],[1,0],[1,0.25],[1,0.5],[1,0.75],[1,1],[0.75,1],[0.5,1],[0.25,1],[0,1],[0,0.75],[0,0.5],[0,0.25]];outlineConnect=0;gradientColor=none;html=1;whiteSpace=wrap;fontSize=12;fontStyle=0;container=1;pointerEvents=0;collapsible=0;recursiveResize=0;shape=mxgraph.aws4.group;grIcon=mxgraph.aws4.group_aws_cloud_alt;strokeColor=#232F3E;fillColor=none;verticalAlign=top;align=left;spacingLeft=30;fontColor=#232F3E;dashed=0;" vertex="1" parent="1">
          <mxGeometry x="60" y="180" width="880" height="510" as="geometry" />
        </mxCell>
        <mxCell id="qXRKfucKjeWxSQUEj51c-2" value="VPC" style="points=[[0,0],[0.25,0],[0.5,0],[0.75,0],[1,0],[1,0.25],[1,0.5],[1,0.75],[1,1],[0.75,1],[0.5,1],[0.25,1],[0,1],[0,0.75],[0,0.5],[0,0.25]];outlineConnect=0;gradientColor=none;html=1;whiteSpace=wrap;fontSize=12;fontStyle=0;container=1;pointerEvents=0;collapsible=0;recursiveResize=0;shape=mxgraph.aws4.group;grIcon=mxgraph.aws4.group_vpc;strokeColor=#248814;fillColor=none;verticalAlign=top;align=left;spacingLeft=30;fontColor=#AAB7B8;dashed=0;" vertex="1" parent="qXRKfucKjeWxSQUEj51c-1">
          <mxGeometry x="60" y="60" width="760" height="240" as="geometry" />
        </mxCell>
        <mxCell id="qXRKfucKjeWxSQUEj51c-5" value="Private subnet" style="points=[[0,0],[0.25,0],[0.5,0],[0.75,0],[1,0],[1,0.25],[1,0.5],[1,0.75],[1,1],[0.75,1],[0.5,1],[0.25,1],[0,1],[0,0.75],[0,0.5],[0,0.25]];outlineConnect=0;gradientColor=none;html=1;whiteSpace=wrap;fontSize=12;fontStyle=0;container=1;pointerEvents=0;collapsible=0;recursiveResize=0;shape=mxgraph.aws4.group;grIcon=mxgraph.aws4.group_security_group;grStroke=0;strokeColor=#147EBA;fillColor=#E6F2F8;verticalAlign=top;align=left;spacingLeft=30;fontColor=#147EBA;dashed=0;" vertex="1" parent="qXRKfucKjeWxSQUEj51c-2">
          <mxGeometry x="50" y="40" width="230" height="160" as="geometry" />
        </mxCell>
        <mxCell id="qXRKfucKjeWxSQUEj51c-16" style="edgeStyle=orthogonalEdgeStyle;rounded=0;orthogonalLoop=1;jettySize=auto;html=1;" edge="1" parent="qXRKfucKjeWxSQUEj51c-5" source="qXRKfucKjeWxSQUEj51c-6" target="qXRKfucKjeWxSQUEj51c-10">
          <mxGeometry relative="1" as="geometry" />
        </mxCell>
        <mxCell id="qXRKfucKjeWxSQUEj51c-6" value="Redshift Cluster" style="sketch=0;points=[[0,0,0],[0.25,0,0],[0.5,0,0],[0.75,0,0],[1,0,0],[0,1,0],[0.25,1,0],[0.5,1,0],[0.75,1,0],[1,1,0],[0,0.25,0],[0,0.5,0],[0,0.75,0],[1,0.25,0],[1,0.5,0],[1,0.75,0]];outlineConnect=0;fontColor=#232F3E;gradientColor=#4D72F3;gradientDirection=north;fillColor=#3334B9;strokeColor=#ffffff;dashed=0;verticalLabelPosition=bottom;verticalAlign=top;align=center;html=1;fontSize=12;fontStyle=0;aspect=fixed;shape=mxgraph.aws4.resourceIcon;resIcon=mxgraph.aws4.redshift;" vertex="1" parent="qXRKfucKjeWxSQUEj51c-5">
          <mxGeometry x="30" y="46" width="78" height="78" as="geometry" />
        </mxCell>
        <mxCell id="qXRKfucKjeWxSQUEj51c-10" value="Elastic IP&#xa;Address" style="sketch=0;outlineConnect=0;fontColor=#232F3E;gradientColor=none;strokeColor=#232F3E;fillColor=#ffffff;dashed=0;verticalLabelPosition=bottom;verticalAlign=top;align=center;html=1;fontSize=12;fontStyle=0;aspect=fixed;shape=mxgraph.aws4.resourceIcon;resIcon=mxgraph.aws4.elastic_ip_address;" vertex="1" parent="qXRKfucKjeWxSQUEj51c-5">
          <mxGeometry x="140" y="55" width="60" height="60" as="geometry" />
        </mxCell>
        <mxCell id="qXRKfucKjeWxSQUEj51c-3" value="Public subnet" style="points=[[0,0],[0.25,0],[0.5,0],[0.75,0],[1,0],[1,0.25],[1,0.5],[1,0.75],[1,1],[0.75,1],[0.5,1],[0.25,1],[0,1],[0,0.75],[0,0.5],[0,0.25]];outlineConnect=0;gradientColor=none;html=1;whiteSpace=wrap;fontSize=12;fontStyle=0;container=1;pointerEvents=0;collapsible=0;recursiveResize=0;shape=mxgraph.aws4.group;grIcon=mxgraph.aws4.group_security_group;grStroke=0;strokeColor=#248814;fillColor=#E9F3E6;verticalAlign=top;align=left;spacingLeft=30;fontColor=#248814;dashed=0;" vertex="1" parent="qXRKfucKjeWxSQUEj51c-2">
          <mxGeometry x="510" y="40" width="180" height="160" as="geometry" />
        </mxCell>
        <mxCell id="qXRKfucKjeWxSQUEj51c-9" value="Network Load Balancer" style="sketch=0;outlineConnect=0;fontColor=#232F3E;gradientColor=none;fillColor=#4D27AA;strokeColor=none;dashed=0;verticalLabelPosition=bottom;verticalAlign=top;align=center;html=1;fontSize=12;fontStyle=0;aspect=fixed;pointerEvents=1;shape=mxgraph.aws4.network_load_balancer;" vertex="1" parent="qXRKfucKjeWxSQUEj51c-3">
          <mxGeometry x="51" y="46" width="78" height="78" as="geometry" />
        </mxCell>
        <mxCell id="qXRKfucKjeWxSQUEj51c-15" style="edgeStyle=orthogonalEdgeStyle;rounded=0;orthogonalLoop=1;jettySize=auto;html=1;" edge="1" parent="qXRKfucKjeWxSQUEj51c-2" source="qXRKfucKjeWxSQUEj51c-10" target="qXRKfucKjeWxSQUEj51c-9">
          <mxGeometry relative="1" as="geometry" />
        </mxCell>
        <mxCell id="qXRKfucKjeWxSQUEj51c-18" style="edgeStyle=orthogonalEdgeStyle;rounded=0;orthogonalLoop=1;jettySize=auto;html=1;" edge="1" parent="qXRKfucKjeWxSQUEj51c-1" source="qXRKfucKjeWxSQUEj51c-7" target="qXRKfucKjeWxSQUEj51c-8">
          <mxGeometry relative="1" as="geometry" />
        </mxCell>
        <mxCell id="qXRKfucKjeWxSQUEj51c-7" value="" style="sketch=0;points=[[0,0,0],[0.25,0,0],[0.5,0,0],[0.75,0,0],[1,0,0],[0,1,0],[0.25,1,0],[0.5,1,0],[0.75,1,0],[1,1,0],[0,0.25,0],[0,0.5,0],[0,0.75,0],[1,0.25,0],[1,0.5,0],[1,0.75,0]];outlineConnect=0;fontColor=#232F3E;gradientColor=#60A337;gradientDirection=north;fillColor=#277116;strokeColor=#ffffff;dashed=0;verticalLabelPosition=bottom;verticalAlign=top;align=center;html=1;fontSize=12;fontStyle=0;aspect=fixed;shape=mxgraph.aws4.resourceIcon;resIcon=mxgraph.aws4.s3;" vertex="1" parent="qXRKfucKjeWxSQUEj51c-1">
          <mxGeometry x="290" y="340" width="78" height="78" as="geometry" />
        </mxCell>
        <mxCell id="qXRKfucKjeWxSQUEj51c-17" style="edgeStyle=orthogonalEdgeStyle;rounded=0;orthogonalLoop=1;jettySize=auto;html=1;entryX=0.5;entryY=1;entryDx=0;entryDy=0;entryPerimeter=0;" edge="1" parent="qXRKfucKjeWxSQUEj51c-1" source="qXRKfucKjeWxSQUEj51c-8" target="qXRKfucKjeWxSQUEj51c-6">
          <mxGeometry relative="1" as="geometry" />
        </mxCell>
        <mxCell id="qXRKfucKjeWxSQUEj51c-8" value="EMR" style="sketch=0;points=[[0,0,0],[0.25,0,0],[0.5,0,0],[0.75,0,0],[1,0,0],[0,1,0],[0.25,1,0],[0.5,1,0],[0.75,1,0],[1,1,0],[0,0.25,0],[0,0.5,0],[0,0.75,0],[1,0.25,0],[1,0.5,0],[1,0.75,0]];outlineConnect=0;fontColor=#232F3E;gradientColor=#945DF2;gradientDirection=north;fillColor=#5A30B5;strokeColor=#ffffff;dashed=0;verticalLabelPosition=bottom;verticalAlign=top;align=center;html=1;fontSize=12;fontStyle=0;aspect=fixed;shape=mxgraph.aws4.resourceIcon;resIcon=mxgraph.aws4.emr;" vertex="1" parent="qXRKfucKjeWxSQUEj51c-1">
          <mxGeometry x="140" y="340" width="78" height="78" as="geometry" />
        </mxCell>
        <mxCell id="qXRKfucKjeWxSQUEj51c-13" value="" style="shape=image;verticalLabelPosition=bottom;labelBackgroundColor=default;verticalAlign=top;aspect=fixed;imageAspect=0;image=data:image/png,iVBORw0KGgoAAAANSUhEUgAAARwAAACxCAMAAAAh3/JWAAABtlBMVEXswhhRUVH///8+Pj4AAADyyhBFRUW+vr77+dryvx3twRjzvhjnyTJjWzj//f9OUU3kwiJRUFX///w1NTXoxBXu7u7xwBT7//3lvgD8//mJiYnqz1315q7/++leXl7356g6OjiioqL99sEAAAjLqCryyACaiUuriyfz45V1dXXszQ5eVCcuLi5XV1dBODnwxieij0oGCAUvIhhvaDTYszfFokW/pEuhgyro5uUpJjJAQTrtxDImJiYtIw8AABJMRhzbwU5yXyPpz0ztyTxXSBvMzMz++NOzs7PsyFKDdzi/rjvCqFZHNRismTdqVSnhyTd9aiKRfh/avjy+qT8yJQ01MiZ2Yy6YeykaGhApGg/MuUzlyiPZtD14cya3qkZBORq8rjOjkTSPgDUkFxlfSCmymD6umCOjmlNUSi7Ovi9ISh9vVyV6XjuVfD1jYCEYAACCYh+QhE85QyPEmyR5fE5HPCd9VSk/NSEAFxH+ykw4JxgdABdVTCdDOgDTslhaViCwnyMqDABXZkJeY07jtUlOLhhTPBYaABLy5IX++8/r107l43LazXyCe2dpVz50c307PE8lLBbLdi2ZAAASn0lEQVR4nO2dj0MTR9rHlzCD2dmQrmGYEDAFCVtgobf8iMK5goQgCAqhCSKyVEUL6ln1vfPt2/fe863Xu/dasO/1tf/x+8zsBhKSLAlgQq/zLYqEzZOZzz6/ZiZQRZGSkpKSkpKSkpKSkpKSkpKSkpKSkpKSkpKSkpKSkpKSkpKSkpKS+m2ImpQQwoii6AqlCiGNHtA5kqYSYOJQCz7DvxRFwjkUUVWmYOEwVFWl3xRJN51bV5KWpXA+RMIpkmY/mEqgtcWlkKXRRg/mvIneTqAbdxBCY6nlmTQPsEaP6Bwp1IqWbTvbvwJ80NzIUohahImypWqaVpKECGOKTRSIQhUyFCTys/U2XhyoxZiIb6J4fxoW7OmxREiDeu5kdlengM/U4lKGMkGFT53qosofjt4dqK1Qi5c2BVidqQhRmeoRJ6KQ8kajwXAsW2U41PfFD8Dn+vhy1hJIKBc7OjSvG8IqY6p1xnmKMCieliLuAhHgOaCzfY3qlR5DAEflAFSNGVay/y0PsHfbMyEFwgo8yCq8nEBDpMzk+vpyuaXZkEN1/SwHwwM6m1vKLS31zYBxhUAVtRW970xfpAa5cAxgoMNUIVYws3ZTa8Dn7mIuA46jFMFRqa5aQ8jV9HgWa2fp8gDHGfGMo/XnJoXhEHoV9Z3ha9QiAYe4yYRCChFdshXqu8cDbIMHWFH9gnzAnNb7m9mtbF//agJNWBUtn0RUBzhXt7a2crtfJl7nKLMpMR80Eo7tJlW3CQQ4bqmwktsiwMZvFeZcnges8TULwzXYyjxMPMIcp+AHXsazg/haPXgGJapR1F/CZZq4jGdf77r8N+G5IyhpiMuyT8Z0osMjVxoKpygyeJyLGUC1Cu2O30fvivKhgDOlUk5RpTOJOewmT5inxtxJ8gXawaRd0vlPfAEHPQCEKk/1wusscsgGrHM43ji2UT+gpecJjiLyjMVrKIMyln1YPLQiOMxcTYDjiwJDsTdJ/kQjn6mAB6/6YukGXBiDxzGl8CCkcqrolMFfup4vSOQQDmW30GNgea7g8NnoVNxjyECqMgL3r0CFcADeNkpipmJKLDub5fnb5k5he14BlsAx4EvojEKiAaAaSWd528BRES3kaAq2bYvlPe0oHHLO4DA68zLVhzuIDfeYkMpw4AtrB/VhRmjXg/G70+jues4xIRCce7vUtelMJHkigv+urDqcTXpz8W7iyVc7aZH7tZ1dNvv02d2554734odwFGUG3VM6zhcchWbeJqbRJlXE2oF+VhEOlBJzAmUhRrI/ox+2d99M/AG9CMHTMs/uOK7Nmel7ApPtfP0Q4NDZl+ir/jfLr9BQFqq2o7S+Sq+//mL535LYtV4Ah9E/IlttbM6xxxIOpEEN8gD8lXmU5XcskUhMEHiA59WjcCiHg3kahSBy1hMhpr3/0/dvwM3ggTdoCJ4EqTQLCy8wcDXxEBoF6CNnp6Hoa5l/R3AhPHMJrUAPbuGvXz29Y2NKDqsVvF5SpChrE33BNLChNK7PyYxNw/BVDeoroZvfoPtZAnBG0QTj4yqBQwWcNT4fSBnG5vQqVuxFtOXlX2sJTQCkGbTMeAIOrXyDklDDFJyDKVPrNsrxVQFjzjZ6pOoKHv9mLVs4GoAygmacUCh9ayTxH9AeNxaOk7oDCwLGdJ0xc306kZhTjoczxYsZzH727Wu475voMRZ3HpwFr4/q1LG/fcH7JTqLrm70MwoR9HJNJzRz550FVUrndfqXL5lJaCtaNQutQ+Rto2dDb1ufof98YEOxbCwczbL4MnhzcTGrwLpgNHED4MAnfzh/DoUse+bp3dd9mDifoYwoNjAzhT1CV7DDFl9D9Fjmzmt7fc6CKWe+XaWqcRXlVLfT1Njif6lEBTh9hS2mC2cllUq9unEfvcoqrMFw4HZbdGZjOjFlW0PTCXTDmkGjx8CZnnt34+23f0FzSbhCf/vflkryyjz5AitkCV0BWE7rKltOpGHOm2J+L5FjYtFEm85TpEPSGUchtXA0IiHPWJaFreTOffSIKI0Nq+92MpT180hK0neoOjiJr9dX1le3t5gOF4Wm1m3s9sCE6aF/rMKEMghyEUlP/1XLgm9Qso0cWLIuosUDPUOQbKz170NF/bfIOVnMu0XC7LGNEG4YHJiO/hR4ZI1+NIpQ0hpKQFhZXs5RysOBfAFrK3q4k2FtPPZ2nyEoVOdGireE63AJyyEbWw9XiRr6wwvomZ3xxFyBwKOs1hfkCJyCPofkILvDCBoGJzQKPFZxrXAYPdydsze+ZB4caAmchymeOpaBuDWegjr1eM0imUQOFvR4dc2hvFYxhk3HgQxttaaKe6wiOGpmY9VsKJzE6Oj0HN49ORxqr73CBxa1zC+rPAM/T+xq2V92YCm1BPGTQ2m+HbIqNh25NI1v5XM4SiXPgYtCG6kGwwEeKasWz+HVqshz1jcy+S8IW0I7/OjUmftKvYqgGCv66DZufWHxbY1t9Fz4Daw3KF+5Cc/xgTPbaM/hIE4FhynL6OqBPdttcCnMMbS4Ih4cf5FO9GsOsVkWjVD3WIHqtkXKeA4ryjm3UX/jSrkHZzpVmnMSAk6Z5QMRfQ6foEeHKZm7c2KG4A00u7GOFfAMZRPd/rYfLCjaA/QdSgIcS3OGvs9Q70lYbOi0ptiREVmHcEIro1nSQM8hNi/bL5xl+ISyB3DQ6HS/YalYUzErhsO3Sc3xKVNT9IO4olfRl2IzldKu1tdbYh9P0e/87YktgmkG/X3OglStqXQLvQqJvVg6u53k+16tKa1wQBBK1lMo5aL/nhlHOxZvdHKN6XMAzl9gkZkK7SBo/5IFcBL9kEuhN6FWMRy+nNRbp3RIrB4cGL+ZQw93suk//8/TsddZxZ0ufYxWMHgQMULP0Esb4hGQODn0j9vZ0OzMyFgiaQCL1pRRnHM06A7/ODIy8vjxeALt8J0hxWnQHrLw4mm0pOxyz9EL4KAJjb/tAuZ+BA5fMr38gRbsEXfAAvy7IcQtvF7PmPkd0r4f+zGPGVgQ/JiEfof3iJazdYPHLJp6nBVbsYurmBaNB5akT6bub2xsTD2ES8ShHl36sUEdMqG797YstgsjToiwQp7nTGgwNU3VjuQccZqXTtPDfV/I2iqBbv/KxPISNMwHdUvPOPywFB5x4HLsHtRRrCev9Of6HIhZaquqc/gET7AwpbB80C2LwOoWTAN6vVGnehaG1p8lEUL37SI4JDQxknXMTGviTeH1qji7UQreAibKDwbxXVWmKPlu2RSBR8Xp7sGODcwWpg3JWaPU3XgvHo7YnxU7/PwoXhw2NvR9Mfy4myylUllNwHnLq1UC9ePnAOztZz+jNbvwar5zxbfJC0cM95jvbSkcjOV9g4g3inUQ29BUYlOVuTWciNNdArB0ntwJocVhJXZCxEKNOkBSbEefjzd+0BfTo9NfkSwUK8g5dGl1DBZea1uNHta5EIFWH0qEuclz6zYzsJLO/nUpfT5uXKNFGM3uQpMBYQWeo/KTGb5MlG+FE4KOBUMmCM0BnKQKq2ZdZUxpVKk4b+IJE9JvdjXVh4mp8u5fsSzpOVwUSg00ZdCdML7Bq2m4g4ovpaSkpKSkpKSkpKSkpKSkpKSkpH5d4u+LOXx347ESp3ClO4HVGyg2Vu4gwzs+rtHQxxDfE6bVW7fEj7qWMXOSMVb+of6aTInhfBQ+MDqrlp8npfz3gJQ1U/vwiHr0XDz/GqpawxGHTulHcx7+g+FMrVIMQpCpaqkRcQperRVPPKKVMkcZNn9frVW1mY93ksZvkJ3Ua5FdNueIt0PUprReIaB1x3HS1Y/HtssZOQPxdx53zwer1/x8fK/U5flbS/R0LXa4qS7xHsPSMQ3A96o3sx/s1rFWxs7p4ShMDwaqVzgaCHd3lDEDH12RGgyBIl0KLQen4xK8TvVmooF4h3LGvwfBmxVlHfEa5hOOhQPdpSPhJZ7WDodUghOtAU6Aw/k41erXDycq4fxrwLk52FnlzH57cNrb2q5f/k3ACQMLrkgsFq0WznBzW6cPkAiYi4KRQORUcKKBWCTaUDjReARGGeNTCUfOCA7wjgTiEf6vU8CJRGIcbyPhBOa73u9178c5pfBZwQFb8/MwtcDp4AQOeqFGwRlghsGcrt5YIBo7GzjhQDQa6xrgzniasApH9mPRxoZVoNfAJjYNsyvfRJ8aDg/SbnxqOIFLTm8g1jg44bALxwBhp/uMcg48P+gY3WAF0sbJ4fSajO43KKwmFwab2qAgXzJMAwspe4FYFMrWieCEwV14Ao3wWhXbM4yBCE8+J4Ijat2+g5kxG4zAYMKx+sK5+enwcFvPsAfHdOnQ3kgUSsRJ4ICPiOpycNNPAycCBTQ4a2Lw6S5e9MSfusFpH7ze0wxqK4aDnWA4frKw4g1JLOZV3vh7fCo4PGl1wXBM4LMHrUasnnBuDrc1N5eBYxhdEBonDCvoIqFp42kssseT2GnCKgYmGPgNxQbdg1CHql4vODeHm5srwKG9cPNPAiccDMJc+S2OxPYdg+HTwImGB0zwPXdMJs/sdcs5kwdsjsKBT+/jgOYknjPwE3cd+G4s3mXwAniasOp1DHdMJhQLpzccrRec9p7mynCYOV8znAivU0FqdEf5OiQS7Ra3/GRwIH6A8T41eDJ2x2Sadm/d4HS2VYTDnfhSoEY4MB+oUu8hm++HecqZd42dGA7A/l9TT2uaOyLNsqyuWJ0S8uT1Zl84e1BGa4ITAwTRebjFRjoI7UmkyzgdHL49MB+HLsdrL/bjwWC9+pxCxymFg83ZmvscWK/G3zPeZndBC9ltuvFw4pwD1Q54xzJGvruIxmP1CquWHl84OBSv0XOgqw5AccEUat1AJO7w7uQ0cASgcCDtVSsaBF8K1wfOzcKocuEojuXQvKx0jXAisASPpz0iZveewZSTJuRw56CnWDw2m+9L47G6LR8Who/CicWLjs/isRoSMmQbKN+RAUzwUZ0ETk+bq+FwNBLK55wgX3bWJyEXpRwBh5fiWCQf7rxcVA1nvjsO/Vk4CN2seRZwDobVIDiDpXCOBHug+rDa17vi4Wj4p39ROJ3tk4VqD4jt8arhKGbXfARWC0ZJVP0q4RSHVXPbdU+/57o+KCKrejgdGOu9s7jUb84azsdLyAqHEy2XkA90TejuZYAjTlQCl8qMhP/GheKcQ02smJR3+iW+48IR26Tl3oOShxOJe+IL+mM85+OwsRSa34i6WR6Oq+Gb4poY5JFLpWOhCsN6sedAh1TGaTw4cXHaM8vU0v9PgkIILFP4JlAwNOtqIBIOX6sIJxyLUVbLz7pr1Yr/1oG4dwDU7gfneru4BuIqOtBRYoaoGlNvFcIJcqcBPuXkbrCHw10cTumYOrr57QpHer2QNPbAcyrDgYajdEB+Uw5Vr3Q2eJCReyqyaRt0L4GVZOxSpqyhTJHn9GaAAsU8psSHgQs+xAZ7IP4Tf/kyli7x41CxvW8I+cOBZX/GrmHCSmvVWll51+7lnCMtcrmoEnudF4bKm/pnoABOvBe031tewYiw9M+hldafS+2kLoDbwJJpPx+Gx8AJt78bqjCkclI+qVYXL15sbj+oCZ9Xcp2eT70r+H7whZYSM038z2AhHBE3sHwoq5gL5//g1S+WjqllwX2dXnx8WMHKKhJu//DhQ9Uz/kS5WK2aPmm6Fj84GZis5DrXJ/OXRKORhZbytorgRETPGCmvGG8LApFBePm/N5UauiBOeyGs3CapGA407Wmv/tH5aIzXtfZmcZerlNJUgwo8J3C5fE4eLuqWL7SUN1QEh/tOuL288k3MYHk7LRfc29AL0+cIjD0g2TPs6vfRcLyLUgEnMx/gmAFOLfM9MZxAZzk6w8WbwsfBac6PtaWnRMJeS9NCNXBiQW/dGwdnOyALOIL73ttR+dsbYvWDE+gsjazrRzbMj4fjJSr4KAunp2e4/Vg44WjgeEX4znT94AQW2o6sIoYXjozoGDg9zfm0Xuo4Qm3N1cCB4vmh8FHI+O4nnl+8CyfFyUwd4QQmB4fbCtB0TgaOyBdOYOHzQ31aXp9/fuHYsIKUfPOXP/X8TqiQ84fmu7+75j7OywQvJnWEA3guN3npr+VyCZrj4NQgXzgR3nZ98ILxkA1UrWsfvK8FnDom5Lzab3KV+06d4IAmmyp4Xl5N3p2rNxw/1QtO1ZJwfCTh+EjC8dFHhNOycKE2dVYw9GmNdi58WmFAnTXaWahwt84ATlNLjfoVGSqn2uD8xiTh+EjC8ZGE4yMJx0cSjo8kHB9JOD6ScHwk4fhIwvGRhOMjCcdHEo6PJBwfSTg+knB8JOH4SMLxkYTjIwnHRxKOjyQcH0k4PpJwfCTh+EjC8ZGE46P/BzTGsMd2r2UqAAAAAElFTkSuQmCC;" vertex="1" parent="1">
          <mxGeometry x="650.2" y="730" width="139.59" height="87" as="geometry" />
        </mxCell>
        <mxCell id="qXRKfucKjeWxSQUEj51c-14" style="edgeStyle=orthogonalEdgeStyle;rounded=0;orthogonalLoop=1;jettySize=auto;html=1;entryX=0.5;entryY=0;entryDx=0;entryDy=0;" edge="1" parent="1" source="qXRKfucKjeWxSQUEj51c-9" target="qXRKfucKjeWxSQUEj51c-13">
          <mxGeometry relative="1" as="geometry" />
        </mxCell>
        <mxCell id="qXRKfucKjeWxSQUEj51c-22" style="rounded=0;orthogonalLoop=1;jettySize=auto;html=1;entryX=0.5;entryY=1;entryDx=0;entryDy=0;entryPerimeter=0;" edge="1" parent="1" source="qXRKfucKjeWxSQUEj51c-19" target="qXRKfucKjeWxSQUEj51c-7">
          <mxGeometry relative="1" as="geometry" />
        </mxCell>
        <mxCell id="qXRKfucKjeWxSQUEj51c-19" value="Sales" style="shape=datastore;whiteSpace=wrap;html=1;" vertex="1" parent="1">
          <mxGeometry x="130" y="743.5" width="60" height="60" as="geometry" />
        </mxCell>
        <mxCell id="qXRKfucKjeWxSQUEj51c-23" style="edgeStyle=none;rounded=0;orthogonalLoop=1;jettySize=auto;html=1;entryX=0.5;entryY=1;entryDx=0;entryDy=0;entryPerimeter=0;" edge="1" parent="1" source="qXRKfucKjeWxSQUEj51c-20" target="qXRKfucKjeWxSQUEj51c-7">
          <mxGeometry relative="1" as="geometry" />
        </mxCell>
        <mxCell id="qXRKfucKjeWxSQUEj51c-20" value="Ops" style="shape=datastore;whiteSpace=wrap;html=1;" vertex="1" parent="1">
          <mxGeometry x="250" y="743.5" width="60" height="60" as="geometry" />
        </mxCell>
        <mxCell id="qXRKfucKjeWxSQUEj51c-24" style="edgeStyle=none;rounded=0;orthogonalLoop=1;jettySize=auto;html=1;entryX=0.5;entryY=1;entryDx=0;entryDy=0;entryPerimeter=0;" edge="1" parent="1" source="qXRKfucKjeWxSQUEj51c-21" target="qXRKfucKjeWxSQUEj51c-7">
          <mxGeometry relative="1" as="geometry" />
        </mxCell>
        <mxCell id="qXRKfucKjeWxSQUEj51c-21" value="Logistics" style="shape=datastore;whiteSpace=wrap;html=1;" vertex="1" parent="1">
          <mxGeometry x="359" y="743.5" width="60" height="60" as="geometry" />
        </mxCell>
        <mxCell id="qXRKfucKjeWxSQUEj51c-25" value="" style="fillColor=none;strokeColor=#5A6C86;dashed=1;verticalAlign=top;fontStyle=0;fontColor=#5A6C86;" vertex="1" parent="1">
          <mxGeometry x="77.5" y="721" width="405" height="139" as="geometry" />
        </mxCell>
        <mxCell id="qXRKfucKjeWxSQUEj51c-26" value="Databases of business functions" style="text;html=1;strokeColor=none;fillColor=none;align=center;verticalAlign=middle;whiteSpace=wrap;rounded=0;" vertex="1" parent="qXRKfucKjeWxSQUEj51c-25">
          <mxGeometry x="107.5" y="96" width="190" height="30" as="geometry" />
        </mxCell>
      </root>
    </mxGraphModel>
  </diagram>
</mxfile>
